<?xml version="1.0" encoding="UTF-8"?>
<svg id="Layer_2" data-name="Layer 2" xmlns="http://www.w3.org/2000/svg" viewBox="0 0 440.04 413">
  <defs>
    <style>
      .cls-1 {
        fill: #038ed2;
      }

      .cls-2 {
        fill: #048ed2;
      }
    </style>
  </defs>
  <g id="Layer_1-2" data-name="Layer 1">
    <g>
      <path class="cls-1" d="M278.04,0l.04,284.54C261.23,457.52,11.78,454.25,0,280.54L.04,0h15.5c33.67,0,59.57,33.85,61.55,65.45,4.36,69.62-4.83,144.66-.09,214.09,5.26,77,118.85,76.66,124.08,0,4.81-70.39-4.68-146.59-.09-217.09,1.99-30.61,29.77-62.45,61.55-62.45h15.5Z"/>
      <path class="cls-1" d="M440.04,413h-21.5c-10.16,0-31.49-12.88-38.47-20.53-32.97-36.16-7.72-112.63-19.77-158.23-6.09-23.05-27.46-41.79-51.26-44.24v-77c23.29.89,47.95,9.5,67.32,22.18,38.48,25.2,60.89,67.55,63.67,113.33v164.49Z"/>
      <path class="cls-2" d="M438.54,0l.49,152c-20.37-24.55-45.03-46.86-75.87-57.12.33-2.84-1.01-5.71-1.11-8.39-1.15-31.65,3.74-60.1,32.97-77.01,6.57-3.8,21.17-9.48,28.52-9.48h15Z"/>
    </g>
  </g>
</svg>